<?xml version="1.0" encoding="UTF-8"?>
<svg id="Layer_2" data-name="Layer 2" xmlns="http://www.w3.org/2000/svg" viewBox="0 0 830.95 144.58">
  <defs>
    <style>
      .cls-1 {
        fill: #fff;
        stroke-width: 0px;
      }
    </style>
  </defs>
  <g id="Layer_3" data-name="Layer 3">
    <g>
      <path class="cls-1" d="M56.4,144.58L17.62,47.47v97.11H0V0h20.08l36.05,92.98V0h17.75v144.58h-17.48Z"/>
      <path class="cls-1" d="M143.66,144.58l-5.74-29.83h-33.46l-6.42,29.83h-20.08L110.34,0h21.99l31.96,144.58h-20.62ZM121.13,32.44h-.14l-11.61,57.48h23.08l-11.33-57.48Z"/>
      <path class="cls-1" d="M170.15,144.58V25.26h-27.31V0h73.75v25.26h-27.45v119.32h-18.98Z"/>
      <path class="cls-1" d="M221.08,144.58V0h66.64v25.26h-48.21v30.92h44.38v25.48h-44.38v37.23h50.39v25.69h-68.83Z"/>
      <path class="cls-1" d="M381,144.58v-64.89h-35.37v64.89h-18.98V0h18.98v54.44h35.37V0h19.12v144.58h-19.12Z"/>
      <path class="cls-1" d="M469.76,144.58l-5.74-29.83h-33.46l-6.42,29.83h-20.08L436.44,0h21.99l31.96,144.58h-20.62ZM447.23,32.44h-.14l-11.61,57.48h23.08l-11.33-57.48Z"/>
      <path class="cls-1" d="M564.8,144.58V45.51l-16.93,99.07h-18.85l-16.8-98.64v98.64h-17.62V0h27.86l16.39,106.04L555.24,0h27.31v144.58h-17.75Z"/>
      <path class="cls-1" d="M659.71,144.58V45.51l-16.93,99.07h-18.85l-16.8-98.64v98.64h-17.62V0h27.86l16.39,106.04L650.15,0h27.31v144.58h-17.75Z"/>
      <path class="cls-1" d="M684.42,144.58V0h66.64v25.26h-48.21v30.92h44.38v25.48h-44.38v37.23h50.39v25.69h-68.83Z"/>
      <path class="cls-1" d="M809.92,144.58v-37.23c0-13.94-3.28-19.38-14.2-19.38h-20.21v56.61h-18.44V0h46.02c16.8,0,27.86,17.85,27.86,41.81,0,15.46-4.78,28.52-13.52,33.53,8.06,4.14,11.06,11.32,11.06,28.31v40.94h-18.57ZM775.51,25.04v38.54h23.76c10.11,0,13.93-8.06,13.93-19.16s-3.82-19.38-13.25-19.38h-24.45Z"/>
    </g>
  </g>
</svg>